<svg width="1102" height="232" viewBox="0 0 1102 232" fill="none"
    xmlns="http://www.w3.org/2000/svg">
    <path d="M169.989 0L317.204 174H22.7743L169.989 0Z" fill="url(#paint0_linear_1_4)"/>
    <path d="M110.911 135.867L227.989 3.76914L345.068 135.867H110.911Z" fill="white" stroke="url(#paint1_linear_1_4)" stroke-width="5"/>
    <path d="M425.272 97.1356C424.323 94.805 423.157 92.6901 421.776 90.7911C418.41 86.3456 414.698 84.1229 410.641 84.1229C408.008 84.1229 405.354 85.094 402.678 87.0362C397.585 90.6616 393.204 96.963 389.536 105.94C385.694 115.177 383.774 124.24 383.774 133.131C383.774 141.677 385.155 148.798 387.917 154.495C390.982 160.797 395.168 163.947 400.477 163.947C402.937 163.947 405.678 162.825 408.699 160.581C413.446 156.999 417.525 151.798 420.935 144.979C421.021 144.72 421.15 144.461 421.323 144.202C422.316 142.518 423.762 141.677 425.661 141.677C426.567 141.677 427.43 141.893 428.25 142.324C429.977 143.317 430.84 144.827 430.84 146.856C430.84 147.59 430.624 148.431 430.192 149.381C427.43 155.251 424.107 160.236 420.222 164.336C413.748 171.112 406.8 174.5 399.376 174.5C398.427 174.5 397.477 174.435 396.528 174.306C389.881 173.356 384.378 169.407 380.019 162.458C375.185 154.733 372.768 145.065 372.768 133.455C372.768 126.549 373.761 119.557 375.746 112.479C378.854 101.344 383.644 92.1075 390.118 84.7703C396.894 77.1741 404.059 73.376 411.612 73.376C414.849 73.376 417.935 74.0882 420.87 75.5124C427.085 78.62 431.746 84.4681 434.854 93.057C435.199 93.877 435.372 94.6755 435.372 95.4524C435.372 96.3587 435.134 97.2219 434.66 98.042C433.624 99.7684 432.135 100.632 430.192 100.632C428.207 100.502 426.567 99.3368 425.272 97.1356ZM462.951 120.118C464.462 120.162 465.886 120.313 467.224 120.572C473.87 121.996 477.949 127.175 479.46 136.109C480.28 135.634 481.639 134.75 483.538 133.455C486.128 131.685 488.092 130.8 489.43 130.8C490.077 130.8 490.703 130.995 491.307 131.383C492.645 132.246 493.314 133.412 493.314 134.879C493.271 136.347 492.321 137.965 490.465 139.735C487.833 142.152 484.423 144.202 480.237 145.885C480.193 152.618 479.179 158.315 477.194 162.976C473.957 170.572 468.648 174.371 461.268 174.371C458.635 174.371 456.002 173.529 453.369 171.846C447.284 167.832 444.241 160.602 444.241 150.158C444.241 143.856 445.298 138.116 447.413 132.937C450.737 124.78 455.916 120.507 462.951 120.118ZM471.043 147.568C469.36 147.525 467.763 147.352 466.253 147.05C460.556 145.842 456.887 142.821 455.247 137.987C454.125 141.612 453.564 145.561 453.564 149.834C453.564 151.906 453.758 153.913 454.146 155.855C455.355 161.768 457.988 164.724 462.045 164.724C463.383 164.724 464.591 164.314 465.67 163.494C468.821 161.077 470.612 155.769 471.043 147.568ZM470.072 138.763C470.072 138.763 470.374 138.763 470.979 138.763C470.331 132.851 468.778 129.873 466.317 129.829C466.102 129.829 465.886 129.851 465.67 129.894C464.72 130.239 464.246 130.952 464.246 132.031C464.246 132.98 464.397 133.908 464.699 134.814C465.648 137.447 467.44 138.763 470.072 138.763ZM486.711 153.913C486.711 152.445 486.797 150.891 486.969 149.251C487.876 141.871 490.206 135.311 493.961 129.57C498.536 122.535 504.039 119.018 510.47 119.018C512.714 119.018 514.894 119.428 517.009 120.248L522.253 82.9575C522.943 77.9078 524.756 75.3614 527.691 75.3182C528.166 75.3182 528.641 75.3614 529.115 75.4477C531.101 75.9225 532.093 77.7999 532.093 81.0801C532.093 82.418 531.165 90.0142 529.309 103.869C525.123 135.419 523.03 152.769 523.03 155.92C523.03 157.905 523.44 159.761 524.26 161.487C525.468 164.077 527.087 165.372 529.115 165.372C529.504 165.372 529.914 165.328 530.345 165.242C531.64 164.983 533.518 163.991 535.978 162.264C538.395 160.538 540.315 159.675 541.74 159.675C542.344 159.675 542.905 159.89 543.423 160.322C544.459 161.185 544.977 162.286 544.977 163.624C544.804 165.868 543.121 168.22 539.927 170.68C536.042 173.443 531.921 174.824 527.562 174.824C522.166 174.781 518.088 172.061 515.326 166.666C514.678 167.443 513.945 168.199 513.124 168.932C508.981 172.73 504.773 174.629 500.5 174.629C497.781 174.629 495.429 173.939 493.443 172.558C488.955 169.45 486.711 163.235 486.711 153.913ZM509.758 158.315C510.319 157.495 511.01 155.359 511.83 151.906C513.556 144.439 514.872 136.605 515.779 128.405C514.786 127.93 513.75 127.628 512.671 127.499C511.894 127.499 511.096 127.607 510.276 127.822C506.262 128.945 502.874 132.656 500.112 138.958C497.652 144.612 496.422 150.287 496.422 155.984C496.422 156.459 496.443 156.934 496.486 157.409C496.702 162.199 498.04 164.595 500.5 164.595C501.752 164.552 503.327 163.861 505.226 162.523C507.255 161.056 508.765 159.653 509.758 158.315ZM535.978 153.718C535.978 152.251 536.086 150.697 536.301 149.057C537.165 141.677 539.452 135.095 543.164 129.311C547.653 122.32 553.026 118.824 559.284 118.824C562.219 118.824 564.873 119.514 567.247 120.895C571.261 123.226 573.268 126.787 573.268 131.577C573.268 132.095 573.246 132.635 573.203 133.196C572.728 140.317 569.254 145.777 562.78 149.575C558.421 152.122 553.889 153.395 549.185 153.395C548.019 153.395 546.876 153.287 545.753 153.071C545.624 153.934 545.559 154.797 545.559 155.661C545.559 157.214 545.797 158.639 546.271 159.933C547.523 163.127 550.069 164.724 553.911 164.724C559.047 164.724 564.291 162.76 569.643 158.833C576.03 154.042 581.771 147.18 586.863 138.246C586.518 138.073 586.173 137.9 585.828 137.728C581.296 135.224 579.03 131.189 579.03 125.621C579.03 123.765 579.505 122.017 580.454 120.377C582.353 117.14 585.353 115.522 589.453 115.522C591.611 115.522 593.618 116.083 595.474 117.205C598.581 119.104 600.135 121.758 600.135 125.168C600.135 126.636 599.855 128.491 599.294 130.736C600.502 130.175 602.185 129.139 604.343 127.628C606.76 125.988 608.508 125.168 609.587 125.168C610.925 125.168 612.155 125.535 613.277 126.269C614.529 127.089 615.155 127.887 615.155 128.664C615.155 128.923 615.004 129.592 614.702 130.671C612.414 138.656 611.27 145.194 611.27 150.287C611.27 154.819 611.767 158.466 612.759 161.228C614.011 164.508 615.759 166.149 618.003 166.149C619.298 166.019 621.456 165.07 624.477 163.3C627.153 161.53 629.139 160.646 630.433 160.646C631.081 160.646 631.728 160.861 632.376 161.293C633.498 162.156 634.059 163.149 634.059 164.271C633.929 166.645 632.246 169.083 629.009 171.587C625.125 174.392 621.003 175.795 616.644 175.795C616.126 175.795 615.586 175.773 615.025 175.73C610.235 175.126 606.717 172.364 604.473 167.443C602.833 164.552 602.013 159.61 602.013 152.618C602.013 151.28 602.056 149.877 602.142 148.41C602.401 143.705 602.811 140.231 603.372 137.987C601.257 139.022 598.797 139.648 595.992 139.864C592.28 147.849 587.36 154.862 581.231 160.905C572.124 169.882 562.521 174.371 552.422 174.371C552.12 174.371 551.774 174.371 551.386 174.371C541.114 173.939 535.978 167.055 535.978 153.718ZM556.824 128.923C556.738 128.966 556.63 129.031 556.5 129.117C552.659 131.836 549.659 136.8 547.501 144.007C548.408 144.18 549.422 144.266 550.544 144.266C554.213 144.266 557.428 143.166 560.191 140.965C563.125 138.591 564.593 135.764 564.593 132.484C564.593 132.052 564.55 131.599 564.463 131.124C564.118 128.664 563.082 127.391 561.356 127.304C559.759 127.52 558.248 128.06 556.824 128.923ZM586.863 126.074C586.907 128.232 588.137 129.851 590.554 130.93C591.503 128.729 591.999 127.11 592.043 126.074C592.043 125.815 591.999 125.535 591.913 125.233C591.611 124.067 590.813 123.485 589.518 123.485C589.259 123.485 589 123.528 588.741 123.614C587.489 123.96 586.863 124.78 586.863 126.074ZM759.784 169.191C759.784 169.234 759.763 169.321 759.719 169.45C759.245 172.817 757.518 174.5 754.54 174.5C753.504 174.5 752.598 174.241 751.821 173.723C750.095 172.601 749.232 170.767 749.232 168.22C749.232 167.486 751.26 149.769 755.317 115.069C745.045 136.692 736.974 153.762 731.104 166.278C729.853 168.954 729.141 170.443 728.968 170.745C727.673 173.205 725.947 174.457 723.789 174.5C723.357 174.5 722.947 174.457 722.559 174.371C720.746 174.025 719.365 172.536 718.415 169.903L707.215 114.939C704.712 134.706 702.165 152.79 699.576 169.191C699.576 169.234 699.554 169.321 699.511 169.45C699.036 172.817 697.31 174.5 694.332 174.5C693.296 174.5 692.39 174.241 691.613 173.723C689.886 172.601 689.023 170.767 689.023 168.22C689.023 167.789 692.088 144.504 698.216 98.3657C699.813 86.4535 700.676 80.0227 700.806 79.0731C700.935 78.2963 701.194 77.5841 701.583 76.9367C702.662 75.2103 704.237 74.3471 706.309 74.3471C706.784 74.3471 707.28 74.4119 707.798 74.5413C709.654 75.0593 710.711 76.0304 710.97 77.4546C711.833 82.2886 714.617 96.3587 719.322 119.665C722.688 136.541 724.846 147.439 725.796 152.359L760.82 78.102C760.993 77.6704 761.23 77.2173 761.532 76.7425C762.784 75.1456 764.338 74.3471 766.193 74.3471C767.013 74.3471 767.79 74.5629 768.524 74.9945C770.25 75.944 771.2 77.4115 771.373 79.3968C771.2 80.6485 771.027 82.0943 770.855 83.7344C764.51 134.361 760.82 162.847 759.784 169.191ZM783.479 154.69C783.479 153.222 783.565 151.668 783.738 150.028C784.644 142.648 786.975 136.088 790.73 130.347C795.305 123.312 800.808 119.795 807.239 119.795C808.965 119.795 810.627 120.01 812.224 120.442C817.921 122.082 820.769 126.096 820.769 132.484C820.769 132.958 820.748 133.455 820.705 133.973C820.273 139.756 817.683 144.612 812.936 148.539C808.274 152.424 802.858 154.366 796.686 154.366C795.521 154.366 794.377 154.258 793.255 154.042C793.168 154.69 793.125 155.596 793.125 156.761C793.125 159.265 793.557 161.207 794.42 162.588C795.585 164.357 797.981 165.393 801.606 165.695C803.203 165.695 804.778 165.523 806.332 165.177C809.051 164.53 812.267 162.998 815.979 160.581C818.395 158.984 820.1 158.186 821.093 158.186C821.654 158.186 822.237 158.358 822.841 158.703C824.222 159.523 824.913 160.71 824.913 162.264C824.913 162.782 824.805 163.343 824.589 163.947C823.424 166.753 819.928 169.407 814.101 171.91C808.706 174.241 803.958 175.406 799.858 175.406C798.304 175.406 796.859 175.277 795.521 175.018C787.493 173.378 783.479 166.602 783.479 154.69ZM804.261 129.959C800.333 132.592 797.247 137.598 795.003 144.979C796.082 145.237 797.118 145.367 798.11 145.367C801.693 145.367 804.822 144.266 807.498 142.065C810.476 139.648 811.965 136.778 811.965 133.455C811.965 130.131 810.907 128.448 808.792 128.405C807.282 128.448 805.771 128.966 804.261 129.959ZM824.913 153.913C824.913 152.445 824.999 150.891 825.172 149.251C826.078 141.871 828.409 135.311 832.164 129.57C836.739 122.535 842.241 119.018 848.672 119.018C850.917 119.018 853.096 119.428 855.211 120.248L860.455 82.9575C861.146 77.9078 862.958 75.3614 865.893 75.3182C866.368 75.3182 866.843 75.3614 867.317 75.4477C869.303 75.9225 870.295 77.7999 870.295 81.0801C870.295 82.418 869.367 90.0142 867.512 103.869C863.325 135.419 861.232 152.769 861.232 155.92C861.232 157.905 861.642 159.761 862.462 161.487C863.67 164.077 865.289 165.372 867.317 165.372C867.706 165.372 868.116 165.328 868.547 165.242C869.842 164.983 871.72 163.991 874.18 162.264C876.597 160.538 878.517 159.675 879.942 159.675C880.546 159.675 881.107 159.89 881.625 160.322C882.661 161.185 883.179 162.286 883.179 163.624C883.006 165.868 881.323 168.22 878.129 170.68C874.245 173.443 870.123 174.824 865.764 174.824C860.369 174.781 856.29 172.061 853.528 166.666C852.88 167.443 852.147 168.199 851.327 168.932C847.183 172.73 842.975 174.629 838.702 174.629C835.983 174.629 833.631 173.939 831.646 172.558C827.157 169.45 824.913 163.235 824.913 153.913ZM847.96 158.315C848.521 157.495 849.212 155.359 850.032 151.906C851.758 144.439 853.075 136.605 853.981 128.405C852.988 127.93 851.952 127.628 850.873 127.499C850.097 127.499 849.298 127.607 848.478 127.822C844.464 128.945 841.076 132.656 838.314 138.958C835.854 144.612 834.624 150.287 834.624 155.984C834.624 156.459 834.645 156.934 834.688 157.409C834.904 162.199 836.242 164.595 838.702 164.595C839.954 164.552 841.529 163.861 843.428 162.523C845.457 161.056 846.967 159.653 847.96 158.315ZM887.516 124.326C887.516 125.578 887.3 128.276 886.869 132.419C885.531 144.676 884.862 152.294 884.862 155.272C884.862 157.258 885.272 159.113 886.092 160.84C887.3 163.429 888.919 164.724 890.948 164.724C891.379 164.724 891.832 164.681 892.307 164.595C893.559 164.293 895.371 163.278 897.745 161.552C900.076 159.826 901.953 158.962 903.378 158.962C903.982 158.962 904.586 159.178 905.19 159.61C906.399 160.473 907.003 161.617 907.003 163.041C906.83 165.242 905.126 167.573 901.889 170.033C897.918 172.795 893.753 174.176 889.394 174.176C885.725 174.176 882.682 172.903 880.265 170.357C876.64 166.472 874.827 160.3 874.827 151.841C874.827 148.949 875.41 143.295 876.575 134.879C877.093 130.952 877.46 128.06 877.676 126.204C877.719 125.815 877.762 125.427 877.805 125.039C878.496 120.723 880.265 118.565 883.114 118.565C883.589 118.565 884.063 118.608 884.538 118.694C886.524 119.169 887.516 121.046 887.516 124.326ZM880.136 107.365C880.136 106.588 880.309 105.854 880.654 105.163C881.517 103.48 882.92 102.639 884.862 102.639C885.639 102.639 886.373 102.811 887.063 103.156C888.746 104.02 889.588 105.422 889.588 107.365C889.588 108.141 889.415 108.875 889.07 109.566C888.207 111.249 886.804 112.091 884.862 112.091C884.085 112.091 883.351 111.918 882.661 111.573C880.978 110.709 880.136 109.307 880.136 107.365ZM899.428 154.172C899.428 152.704 899.515 151.15 899.687 149.51C900.594 142.087 902.924 135.505 906.679 129.765C911.254 122.773 916.757 119.277 923.188 119.277C925.95 119.277 928.367 119.816 930.439 120.895C931.302 119.859 932.489 119.32 934 119.277C934.863 119.277 935.402 119.341 935.618 119.471C937.474 120.075 938.402 121.909 938.402 124.974C938.402 126.225 938.186 128.923 937.755 133.066C936.417 145.324 935.748 152.942 935.748 155.92C935.748 157.905 936.158 159.761 936.978 161.487C938.186 164.077 939.783 165.372 941.768 165.372C942.157 165.372 942.567 165.328 942.999 165.242C944.293 164.983 946.149 163.991 948.566 162.264C950.94 160.538 952.839 159.675 954.263 159.675C954.824 159.675 955.407 159.869 956.011 160.257C957.263 161.12 957.889 162.264 957.889 163.688C957.759 165.933 956.054 168.263 952.774 170.68C948.847 173.443 944.682 174.824 940.279 174.824C934.841 174.781 930.827 172.04 928.238 166.602C927.634 167.335 926.943 168.069 926.166 168.803C921.893 172.817 917.556 174.824 913.153 174.824C910.391 174.824 907.996 174.112 905.967 172.687C901.608 169.493 899.428 163.322 899.428 154.172ZM927.914 132.872C927.914 132.872 928.065 131.405 928.367 128.47C927.418 127.995 926.425 127.758 925.389 127.758C924.612 127.758 923.814 127.866 922.994 128.081C918.98 129.204 915.592 132.915 912.83 139.217C910.37 144.871 909.139 150.546 909.139 156.243C909.139 156.459 909.139 156.675 909.139 156.891C909.269 162.156 910.607 164.789 913.153 164.789C914.491 164.746 916.131 164.012 918.074 162.588C920.059 161.164 921.505 159.826 922.411 158.574C922.972 157.754 923.728 155.359 924.677 151.388C926.404 144.007 927.483 137.836 927.914 132.872Z" fill="url(#paint2_linear_1_4)"/>
    <defs>
        <linearGradient id="paint0_linear_1_4" x1="170" y1="-1.00453e-05" x2="316.5" y2="161" gradientUnits="userSpaceOnUse">
            <stop stop-color="#A92059"/>
            <stop offset="0.885402" stop-color="#EC882B"/>
        </linearGradient>
        <linearGradient id="paint1_linear_1_4" x1="227.989" y1="0" x2="115" y2="134" gradientUnits="userSpaceOnUse">
            <stop stop-color="#B43939"/>
            <stop offset="1" stop-color="#C83484"/>
        </linearGradient>
        <linearGradient id="paint2_linear_1_4" x1="369.596" y1="91.5" x2="957.096" y2="174.5" gradientUnits="userSpaceOnUse">
            <stop stop-color="#FA9116"/>
            <stop offset="1" stop-color="#AB0D0D" stop-opacity="0.86"/>
        </linearGradient>
    </defs>
</svg>
