<svg width="1102" height="232" viewBox="0 0 1102 232" fill="none" xmlns="http://www.w3.org/2000/svg">
<path d="M169.989 0L317.204 174H22.7743L169.989 0Z" fill="#252525"/>
<path d="M106.04 138.059L227.989 0.465129L349.938 138.059H106.04Z" fill="white" stroke="black" stroke-width="0.617021"/>
<path d="M425.676 79.6356C424.727 77.305 423.562 75.1901 422.18 73.2911C418.814 68.8456 415.102 66.6229 411.045 66.6229C408.412 66.6229 405.758 67.594 403.082 69.5362C397.989 73.1616 393.609 79.463 389.94 88.4403C386.099 97.6765 384.178 106.74 384.178 115.631C384.178 124.177 385.559 131.298 388.321 136.995C391.386 143.297 395.572 146.447 400.881 146.447C403.341 146.447 406.082 145.325 409.103 143.081C413.851 139.499 417.929 134.298 421.339 127.479C421.425 127.22 421.555 126.961 421.727 126.702C422.72 125.018 424.166 124.177 426.065 124.177C426.971 124.177 427.834 124.393 428.655 124.824C430.381 125.817 431.244 127.327 431.244 129.356C431.244 130.09 431.028 130.931 430.597 131.881C427.834 137.751 424.511 142.736 420.627 146.836C414.153 153.612 407.204 157 399.78 157C398.831 157 397.881 156.935 396.932 156.806C390.285 155.856 384.782 151.907 380.423 144.958C375.589 137.233 373.172 127.565 373.172 115.955C373.172 109.049 374.165 102.057 376.15 94.979C379.258 83.8437 384.049 74.6075 390.523 67.2703C397.299 59.6741 404.463 55.876 412.016 55.876C415.253 55.876 418.339 56.5882 421.274 58.0124C427.489 61.12 432.15 66.9681 435.258 75.557C435.603 76.377 435.776 77.1755 435.776 77.9524C435.776 78.8587 435.539 79.7219 435.064 80.542C434.028 82.2684 432.539 83.1316 430.597 83.1316C428.611 83.0021 426.971 81.8368 425.676 79.6356ZM463.355 102.618C464.866 102.662 466.29 102.813 467.628 103.072C474.275 104.496 478.353 109.675 479.864 118.609C480.684 118.134 482.043 117.25 483.943 115.955C486.532 114.185 488.496 113.3 489.834 113.3C490.481 113.3 491.107 113.495 491.711 113.883C493.049 114.746 493.718 115.912 493.718 117.379C493.675 118.847 492.726 120.465 490.87 122.235C488.237 124.652 484.827 126.702 480.641 128.385C480.598 135.118 479.583 140.815 477.598 145.476C474.361 153.072 469.052 156.871 461.672 156.871C459.039 156.871 456.406 156.029 453.774 154.346C447.688 150.332 444.645 143.102 444.645 132.658C444.645 126.356 445.703 120.616 447.818 115.437C451.141 107.28 456.32 103.007 463.355 102.618ZM471.448 130.068C469.764 130.025 468.168 129.852 466.657 129.55C460.96 128.342 457.291 125.321 455.651 120.487C454.529 124.112 453.968 128.061 453.968 132.334C453.968 134.406 454.162 136.413 454.551 138.355C455.759 144.268 458.392 147.224 462.449 147.224C463.787 147.224 464.995 146.814 466.074 145.994C469.225 143.577 471.016 138.269 471.448 130.068ZM470.477 121.263C470.477 121.263 470.779 121.263 471.383 121.263C470.736 115.351 469.182 112.373 466.722 112.329C466.506 112.329 466.29 112.351 466.074 112.394C465.125 112.739 464.65 113.452 464.65 114.531C464.65 115.48 464.801 116.408 465.103 117.314C466.053 119.947 467.844 121.263 470.477 121.263ZM487.115 136.413C487.115 134.945 487.201 133.391 487.374 131.751C488.28 124.371 490.611 117.811 494.366 112.07C498.941 105.035 504.444 101.518 510.874 101.518C513.119 101.518 515.298 101.928 517.413 102.748L522.657 65.4575C523.348 60.4078 525.16 57.8614 528.095 57.8182C528.57 57.8182 529.045 57.8614 529.52 57.9477C531.505 58.4225 532.498 60.2999 532.498 63.5801C532.498 64.918 531.57 72.5142 529.714 86.3686C525.527 117.919 523.434 135.269 523.434 138.42C523.434 140.405 523.844 142.261 524.664 143.987C525.873 146.577 527.491 147.872 529.52 147.872C529.908 147.872 530.318 147.828 530.75 147.742C532.044 147.483 533.922 146.491 536.382 144.764C538.799 143.038 540.72 142.175 542.144 142.175C542.748 142.175 543.309 142.39 543.827 142.822C544.863 143.685 545.381 144.786 545.381 146.124C545.208 148.368 543.525 150.72 540.331 153.18C536.447 155.943 532.325 157.324 527.966 157.324C522.571 157.281 518.492 154.561 515.73 149.166C515.082 149.943 514.349 150.699 513.529 151.432C509.385 155.23 505.177 157.129 500.904 157.129C498.185 157.129 495.833 156.439 493.848 155.058C489.359 151.95 487.115 145.735 487.115 136.413ZM510.162 140.815C510.723 139.995 511.414 137.859 512.234 134.406C513.96 126.939 515.277 119.105 516.183 110.905C515.19 110.43 514.155 110.128 513.076 109.999C512.299 109.999 511.5 110.107 510.68 110.322C506.666 111.445 503.278 115.156 500.516 121.458C498.056 127.112 496.826 132.787 496.826 138.484C496.826 138.959 496.847 139.434 496.891 139.909C497.106 144.699 498.444 147.095 500.904 147.095C502.156 147.052 503.731 146.361 505.63 145.023C507.659 143.556 509.17 142.153 510.162 140.815ZM536.382 136.218C536.382 134.751 536.49 133.197 536.706 131.557C537.569 124.177 539.856 117.595 543.568 111.811C548.057 104.82 553.43 101.324 559.688 101.324C562.623 101.324 565.278 102.014 567.651 103.395C571.665 105.726 573.672 109.287 573.672 114.077C573.672 114.595 573.651 115.135 573.608 115.696C573.133 122.817 569.658 128.277 563.184 132.075C558.825 134.622 554.293 135.895 549.589 135.895C548.424 135.895 547.28 135.787 546.158 135.571C546.028 136.434 545.964 137.297 545.964 138.161C545.964 139.714 546.201 141.139 546.676 142.433C547.927 145.627 550.474 147.224 554.315 147.224C559.451 147.224 564.695 145.26 570.047 141.333C576.435 136.542 582.175 129.68 587.268 120.746C586.922 120.573 586.577 120.4 586.232 120.228C581.7 117.724 579.434 113.689 579.434 108.121C579.434 106.265 579.909 104.517 580.858 102.877C582.757 99.6403 585.757 98.0218 589.857 98.0218C592.015 98.0218 594.022 98.5829 595.878 99.705C598.986 101.604 600.539 104.258 600.539 107.668C600.539 109.136 600.259 110.991 599.698 113.236C600.906 112.675 602.589 111.639 604.747 110.128C607.164 108.488 608.912 107.668 609.991 107.668C611.329 107.668 612.559 108.035 613.682 108.769C614.933 109.589 615.559 110.387 615.559 111.164C615.559 111.423 615.408 112.092 615.106 113.171C612.818 121.156 611.675 127.694 611.675 132.787C611.675 137.319 612.171 140.966 613.164 143.728C614.415 147.008 616.163 148.649 618.408 148.649C619.702 148.519 621.86 147.57 624.882 145.8C627.558 144.03 629.543 143.146 630.838 143.146C631.485 143.146 632.133 143.361 632.78 143.793C633.902 144.656 634.463 145.649 634.463 146.771C634.334 149.145 632.65 151.583 629.413 154.087C625.529 156.892 621.407 158.295 617.048 158.295C616.53 158.295 615.991 158.273 615.43 158.23C610.639 157.626 607.121 154.864 604.877 149.943C603.237 147.052 602.417 142.11 602.417 135.118C602.417 133.78 602.46 132.377 602.546 130.91C602.805 126.205 603.215 122.731 603.776 120.487C601.662 121.522 599.201 122.148 596.396 122.364C592.684 130.349 587.764 137.362 581.635 143.405C572.529 152.382 562.925 156.871 552.826 156.871C552.524 156.871 552.179 156.871 551.79 156.871C541.518 156.439 536.382 149.555 536.382 136.218ZM557.228 111.423C557.142 111.466 557.034 111.531 556.905 111.617C553.063 114.336 550.064 119.3 547.906 126.507C548.812 126.68 549.826 126.766 550.949 126.766C554.617 126.766 557.833 125.666 560.595 123.465C563.53 121.091 564.997 118.264 564.997 114.984C564.997 114.552 564.954 114.099 564.868 113.624C564.522 111.164 563.486 109.891 561.76 109.804C560.163 110.02 558.653 110.56 557.228 111.423ZM587.268 108.574C587.311 110.732 588.541 112.351 590.958 113.43C591.907 111.229 592.404 109.61 592.447 108.574C592.447 108.315 592.404 108.035 592.317 107.733C592.015 106.567 591.217 105.985 589.922 105.985C589.663 105.985 589.404 106.028 589.145 106.114C587.894 106.46 587.268 107.28 587.268 108.574ZM760.188 151.691C760.188 151.734 760.167 151.821 760.124 151.95C759.649 155.317 757.923 157 754.944 157C753.909 157 753.002 156.741 752.225 156.223C750.499 155.101 749.636 153.267 749.636 150.72C749.636 149.986 751.664 132.269 755.721 97.5686C745.449 119.192 737.378 136.262 731.509 148.778C730.257 151.454 729.545 152.943 729.372 153.245C728.077 155.705 726.351 156.957 724.193 157C723.761 157 723.351 156.957 722.963 156.871C721.15 156.525 719.769 155.036 718.819 152.403L707.619 97.4391C705.116 117.206 702.57 135.29 699.98 151.691C699.98 151.734 699.959 151.821 699.915 151.95C699.441 155.317 697.714 157 694.736 157C693.7 157 692.794 156.741 692.017 156.223C690.291 155.101 689.428 153.267 689.428 150.72C689.428 150.289 692.492 127.004 698.621 80.8657C700.218 68.9535 701.081 62.5227 701.21 61.5731C701.34 60.7963 701.599 60.0841 701.987 59.4367C703.066 57.7103 704.641 56.8471 706.713 56.8471C707.188 56.8471 707.684 56.9119 708.202 57.0413C710.058 57.5593 711.115 58.5304 711.374 59.9546C712.238 64.7886 715.021 78.8587 719.726 102.165C723.092 119.041 725.25 129.939 726.2 134.859L761.224 60.602C761.397 60.1704 761.634 59.7173 761.936 59.2425C763.188 57.6456 764.742 56.8471 766.598 56.8471C767.418 56.8471 768.195 57.0629 768.928 57.4945C770.655 58.444 771.604 59.9115 771.777 61.8968C771.604 63.1485 771.432 64.5943 771.259 66.2344C764.914 116.861 761.224 145.347 760.188 151.691ZM783.883 137.19C783.883 135.722 783.97 134.168 784.142 132.528C785.049 125.148 787.379 118.588 791.134 112.847C795.709 105.812 801.212 102.295 807.643 102.295C809.369 102.295 811.031 102.51 812.628 102.942C818.325 104.582 821.174 108.596 821.174 114.984C821.174 115.458 821.152 115.955 821.109 116.473C820.677 122.256 818.088 127.112 813.34 131.039C808.679 134.924 803.262 136.866 797.09 136.866C795.925 136.866 794.781 136.758 793.659 136.542C793.573 137.19 793.53 138.096 793.53 139.261C793.53 141.765 793.961 143.707 794.824 145.088C795.99 146.857 798.385 147.893 802.01 148.195C803.607 148.195 805.183 148.023 806.737 147.677C809.456 147.03 812.671 145.498 816.383 143.081C818.8 141.484 820.505 140.686 821.497 140.686C822.058 140.686 822.641 140.858 823.245 141.203C824.626 142.023 825.317 143.21 825.317 144.764C825.317 145.282 825.209 145.843 824.993 146.447C823.828 149.253 820.332 151.907 814.505 154.41C809.11 156.741 804.363 157.906 800.263 157.906C798.709 157.906 797.263 157.777 795.925 157.518C787.897 155.878 783.883 149.102 783.883 137.19ZM804.665 112.459C800.737 115.092 797.651 120.098 795.407 127.479C796.486 127.737 797.522 127.867 798.515 127.867C802.097 127.867 805.226 126.766 807.902 124.565C810.88 122.148 812.369 119.278 812.369 115.955C812.369 112.631 811.311 110.948 809.197 110.905C807.686 110.948 806.175 111.466 804.665 112.459ZM825.317 136.413C825.317 134.945 825.403 133.391 825.576 131.751C826.482 124.371 828.813 117.811 832.568 112.07C837.143 105.035 842.646 101.518 849.077 101.518C851.321 101.518 853.5 101.928 855.615 102.748L860.859 65.4575C861.55 60.4078 863.362 57.8614 866.297 57.8182C866.772 57.8182 867.247 57.8614 867.722 57.9477C869.707 58.4225 870.7 60.2999 870.7 63.5801C870.7 64.918 869.772 72.5142 867.916 86.3686C863.729 117.919 861.636 135.269 861.636 138.42C861.636 140.405 862.046 142.261 862.866 143.987C864.075 146.577 865.693 147.872 867.722 147.872C868.11 147.872 868.52 147.828 868.952 147.742C870.247 147.483 872.124 146.491 874.584 144.764C877.001 143.038 878.922 142.175 880.346 142.175C880.95 142.175 881.511 142.39 882.029 142.822C883.065 143.685 883.583 144.786 883.583 146.124C883.41 148.368 881.727 150.72 878.533 153.18C874.649 155.943 870.527 157.324 866.168 157.324C860.773 157.281 856.694 154.561 853.932 149.166C853.285 149.943 852.551 150.699 851.731 151.432C847.588 155.23 843.379 157.129 839.107 157.129C836.387 157.129 834.035 156.439 832.05 155.058C827.561 151.95 825.317 145.735 825.317 136.413ZM848.364 140.815C848.925 139.995 849.616 137.859 850.436 134.406C852.162 126.939 853.479 119.105 854.385 110.905C853.393 110.43 852.357 110.128 851.278 109.999C850.501 109.999 849.702 110.107 848.882 110.322C844.868 111.445 841.48 115.156 838.718 121.458C836.258 127.112 835.028 132.787 835.028 138.484C835.028 138.959 835.05 139.434 835.093 139.909C835.308 144.699 836.646 147.095 839.107 147.095C840.358 147.052 841.934 146.361 843.833 145.023C845.861 143.556 847.372 142.153 848.364 140.815ZM887.921 106.826C887.921 108.078 887.705 110.776 887.273 114.919C885.935 127.176 885.266 134.794 885.266 137.772C885.266 139.758 885.676 141.613 886.496 143.34C887.705 145.929 889.323 147.224 891.352 147.224C891.783 147.224 892.237 147.181 892.711 147.095C893.963 146.793 895.776 145.778 898.149 144.052C900.48 142.326 902.358 141.462 903.782 141.462C904.386 141.462 904.99 141.678 905.595 142.11C906.803 142.973 907.407 144.117 907.407 145.541C907.235 147.742 905.53 150.073 902.293 152.533C898.322 155.295 894.157 156.676 889.798 156.676C886.129 156.676 883.087 155.403 880.67 152.857C877.044 148.972 875.232 142.8 875.232 134.341C875.232 131.449 875.814 125.795 876.979 117.379C877.497 113.452 877.864 110.56 878.08 108.704C878.123 108.315 878.166 107.927 878.21 107.539C878.9 103.223 880.67 101.065 883.518 101.065C883.993 101.065 884.468 101.108 884.943 101.194C886.928 101.669 887.921 103.546 887.921 106.826ZM880.54 89.8645C880.54 89.0877 880.713 88.3539 881.058 87.6634C881.921 85.9801 883.324 85.1385 885.266 85.1385C886.043 85.1385 886.777 85.3112 887.467 85.6564C889.151 86.5196 889.992 87.9223 889.992 89.8645C889.992 90.6414 889.82 91.3751 889.474 92.0657C888.611 93.749 887.208 94.5906 885.266 94.5906C884.489 94.5906 883.756 94.4179 883.065 94.0727C881.382 93.2095 880.54 91.8068 880.54 89.8645ZM899.833 136.672C899.833 135.204 899.919 133.65 900.092 132.01C900.998 124.587 903.329 118.005 907.084 112.265C911.659 105.273 917.162 101.777 923.592 101.777C926.355 101.777 928.772 102.316 930.843 103.395C931.706 102.359 932.893 101.82 934.404 101.777C935.267 101.777 935.807 101.841 936.022 101.971C937.878 102.575 938.806 104.409 938.806 107.474C938.806 108.725 938.59 111.423 938.159 115.566C936.821 127.824 936.152 135.442 936.152 138.42C936.152 140.405 936.562 142.261 937.382 143.987C938.59 146.577 940.187 147.872 942.173 147.872C942.561 147.872 942.971 147.828 943.403 147.742C944.698 147.483 946.554 146.491 948.97 144.764C951.344 143.038 953.243 142.175 954.668 142.175C955.229 142.175 955.811 142.369 956.416 142.757C957.667 143.62 958.293 144.764 958.293 146.188C958.164 148.433 956.459 150.763 953.179 153.18C949.251 155.943 945.086 157.324 940.684 157.324C935.246 157.281 931.232 154.54 928.642 149.102C928.038 149.835 927.347 150.569 926.57 151.303C922.298 155.317 917.96 157.324 913.558 157.324C910.795 157.324 908.4 156.612 906.372 155.187C902.012 151.993 899.833 145.822 899.833 136.672ZM928.318 115.372C928.318 115.372 928.469 113.905 928.772 110.97C927.822 110.495 926.829 110.258 925.794 110.258C925.017 110.258 924.218 110.366 923.398 110.581C919.384 111.704 915.996 115.415 913.234 121.717C910.774 127.371 909.544 133.046 909.544 138.743C909.544 138.959 909.544 139.175 909.544 139.391C909.673 144.656 911.011 147.289 913.558 147.289C914.896 147.246 916.536 146.512 918.478 145.088C920.463 143.664 921.909 142.326 922.815 141.074C923.377 140.254 924.132 137.859 925.081 133.888C926.808 126.507 927.887 120.336 928.318 115.372Z" fill="black"/>
</svg>
